<?xml version="1.0" standalone="no"?>
<!DOCTYPE svg PUBLIC "-//W3C//DTD SVG 20010904//EN"
 "http://www.w3.org/TR/2001/REC-SVG-20010904/DTD/svg10.dtd">
<svg version="1.0" xmlns="http://www.w3.org/2000/svg"
 width="400.000000pt" height="400.000000pt" viewBox="0 0 400.000000 400.000000"
 preserveAspectRatio="xMidYMid meet">
<metadata>
Created by potrace 1.16, written by Peter Selinger 2001-2019
</metadata>
<g transform="translate(0.000000,400.000000) scale(0.100000,-0.100000)"
fill="#000000" stroke="none">
<path d="M0 2000 l0 -2000 2000 0 2000 0 0 2000 0 2000 -2000 0 -2000 0 0
-2000z m2770 10 l0 -780 -780 0 -780 0 0 780 0 780 780 0 780 0 0 -780z
m-1915 -1045 c33 -32 33 -84 1 -121 -51 -60 -150 -19 -150 62 0 74 96 113 149
59z m549 -6 c30 -35 32 -58 11 -98 -27 -54 -108 -61 -145 -13 -72 90 60 200
134 111z m690 0 c30 -35 32 -58 11 -98 -27 -54 -108 -61 -145 -13 -72 90 60
200 134 111z m1134 8 c12 -13 24 -37 28 -54 5 -25 0 -37 -24 -64 -23 -26 -37
-33 -67 -33 -75 0 -114 96 -60 149 33 34 93 34 123 2z"/>
<path d="M1260 2005 l0 -735 733 2 732 3 3 733 2 732 -735 0 -735 0 0 -735z
m557 465 c32 -19 63 -66 63 -93 0 -10 -12 -15 -39 -15 -31 -1 -42 5 -60 29
-24 32 -73 40 -105 16 -34 -25 -16 -51 49 -70 142 -44 165 -63 165 -137 0 -56
-20 -86 -74 -111 -102 -46 -238 -1 -260 87 -9 33 -9 33 41 38 38 3 43 1 53
-25 28 -66 172 -52 147 15 -7 19 -29 29 -110 51 -79 22 -118 58 -119 111 0 51
14 80 55 104 44 28 150 27 194 0z m220 -114 c12 -71 24 -130 26 -132 2 -2 21
57 41 131 l39 135 43 0 43 0 20 -67 c11 -38 29 -99 39 -138 11 -38 22 -63 25
-55 3 8 13 62 22 120 23 149 18 140 76 140 43 0 50 -2 45 -17 -2 -10 -16 -79
-31 -153 -14 -74 -31 -159 -36 -187 l-10 -53 -54 0 -53 0 -20 68 c-11 37 -30
101 -43 142 -12 41 -23 71 -25 65 -2 -5 -21 -68 -43 -140 l-38 -130 -55 -3
-54 -3 -37 193 c-21 106 -37 199 -37 206 0 9 14 12 47 10 l47 -3 23 -129z
m-97 -591 l0 -125 30 0 c28 0 30 -2 30 -40 0 -38 -2 -40 -30 -40 -28 0 -30 -2
-30 -40 l0 -40 -45 0 -45 0 0 40 0 40 -105 0 c-58 0 -105 2 -105 5 0 3 50 78
111 165 l111 160 39 0 39 0 0 -125z m400 85 l0 -39 -57 -3 -58 -3 -3 -162 -2
-163 -45 0 -45 0 0 165 0 165 -55 0 -55 0 0 40 0 40 160 0 160 0 0 -40z"/>
<path d="M758 964 c-73 -39 -24 -150 57 -130 29 7 56 56 47 88 -5 20 -48 58
-66 58 -6 -1 -23 -7 -38 -16z"/>
<path d="M1297 960 c-35 -28 -37 -77 -4 -108 30 -29 62 -28 92 3 63 63 -18
160 -88 105z"/>
<path d="M1987 960 c-37 -29 -37 -80 -1 -109 35 -27 59 -26 89 4 63 63 -18
160 -88 105z"/>
<path d="M3127 960 c-35 -28 -37 -80 -5 -110 29 -27 64 -25 93 5 63 63 -18
160 -88 105z"/>
</g>
</svg>
