<?xml version="1.0" standalone="no"?>
<!DOCTYPE svg PUBLIC "-//W3C//DTD SVG 20010904//EN"
 "http://www.w3.org/TR/2001/REC-SVG-20010904/DTD/svg10.dtd">
<svg version="1.0" xmlns="http://www.w3.org/2000/svg"
 width="1500.000000pt" height="500.000000pt" viewBox="0 0 1500.000000 500.000000"
 preserveAspectRatio="xMidYMid meet">
<metadata>
Created by potrace 1.16, written by Peter Selinger 2001-2019
</metadata>
<g transform="translate(0.000000,500.000000) scale(0.100000,-0.100000)"
fill="#000000" stroke="none">
<path d="M0 2500 l0 -2500 7500 0 7500 0 0 2500 0 2500 -7500 0 -7500 0 0
-2500z m8465 10 l0 -975 -975 0 -975 0 -3 965 c-1 531 0 971 3 978 3 10 204
12 977 10 l973 -3 0 -975z m-105 -1482 c0 -20 -19 -5 -29 22 -9 28 -13 30 -60
30 -46 0 -50 -2 -60 -30 -5 -16 -15 -30 -20 -30 -15 0 -15 2 25 98 20 48 41
98 46 112 9 23 14 15 54 -85 24 -60 44 -113 44 -117z m-2310 195 c71 -41 67
-154 -7 -192 -71 -36 -151 10 -160 92 -5 43 -3 49 30 82 40 40 89 47 137 18z
m109 -50 c8 -38 16 -72 19 -77 2 -4 18 26 34 68 16 42 33 74 36 72 4 -2 18
-36 32 -75 13 -39 27 -71 30 -71 3 0 13 32 21 72 7 39 19 73 26 75 7 3 3 -34
-13 -108 -14 -62 -26 -114 -28 -116 -2 -2 -18 37 -36 87 -18 49 -34 90 -35 90
-1 0 -17 -41 -35 -90 -18 -50 -34 -89 -36 -87 -2 2 -14 54 -28 115 -17 81 -21
112 -12 112 7 0 18 -29 25 -67z m349 51 c32 -22 30 -76 -4 -103 l-26 -21 26
-34 c29 -39 31 -46 14 -46 -7 1 -28 21 -46 45 -18 25 -37 45 -42 45 -6 0 -10
-21 -10 -46 0 -31 -4 -44 -12 -42 -10 4 -15 115 -8 211 0 13 85 7 108 -9z
m216 4 c77 -34 77 -162 0 -196 -45 -21 -91 -15 -126 17 -29 26 -33 35 -33 81
0 46 4 55 33 81 35 32 81 38 126 17z m886 -17 c16 -16 32 -40 36 -55 16 -65
-38 -136 -103 -136 -83 0 -138 70 -113 146 25 73 126 99 180 45z m180 19 c32
-17 43 -48 30 -81 -7 -16 -15 -29 -19 -29 -3 0 -12 -4 -20 -9 -11 -7 -8 -17
18 -50 24 -30 28 -41 17 -41 -8 0 -30 20 -48 45 -43 58 -58 58 -58 0 0 -25 -4
-45 -10 -45 -6 0 -10 43 -10 110 l0 110 41 0 c22 0 49 -5 59 -10z m1246 -24
c28 -28 34 -42 34 -76 0 -34 -6 -48 -34 -76 -28 -28 -42 -34 -76 -34 -34 0
-48 6 -76 34 -28 28 -34 42 -34 76 0 34 6 48 34 76 28 28 42 34 76 34 34 0 48
-6 76 -34z m168 -121 c6 -16 14 -3 40 62 17 45 34 84 37 87 3 4 16 -39 28 -94
24 -114 24 -120 12 -120 -5 0 -17 35 -26 78 l-18 77 -33 -85 c-37 -95 -29 -98
-71 20 -9 25 -19 49 -23 53 -4 4 -13 -24 -20 -63 -12 -63 -24 -90 -35 -78 -4
4 31 179 41 208 5 13 24 -27 68 -145z"/>
<path d="M6570 2510 l0 -920 920 0 920 0 0 920 0 920 -920 0 -920 0 0 -920z
m698 580 c39 -22 82 -82 82 -114 0 -13 -11 -16 -52 -16 -48 0 -55 3 -69 29
-25 43 -98 50 -141 13 -41 -35 -7 -67 98 -93 88 -22 128 -43 156 -79 49 -66
24 -166 -53 -210 -56 -31 -158 -38 -226 -16 -72 24 -123 85 -123 147 0 16 7
19 56 19 52 0 56 -1 66 -30 25 -72 167 -82 184 -13 10 37 -19 59 -109 83 -144
39 -177 68 -177 156 0 45 5 59 31 89 58 66 192 83 277 35z m261 -42 c6 -35 18
-109 27 -165 9 -57 20 -103 23 -103 3 0 26 73 52 163 l45 162 56 3 56 3 15
-53 c9 -29 30 -106 48 -170 18 -65 34 -116 36 -114 2 1 14 68 28 147 36 211
26 189 96 189 l60 0 -7 -37 c-4 -21 -25 -135 -48 -253 l-42 -215 -68 0 -69 0
-50 173 c-28 95 -54 167 -58 160 -4 -7 -28 -86 -54 -175 l-48 -163 -67 0 -67
0 -47 239 c-25 132 -46 246 -46 255 0 13 12 16 59 16 l59 0 11 -62z m-99 -843
l0 -155 35 0 35 0 0 -50 0 -50 -35 0 -35 0 0 -50 0 -50 -60 0 -60 0 1 38 c1
20 1 43 0 50 -1 9 -34 12 -131 12 -71 0 -130 3 -130 6 0 3 62 95 137 205 l137
199 53 0 53 0 0 -155z m500 105 l0 -50 -75 0 -75 0 0 -205 0 -205 -55 0 -55 0
0 205 0 205 -75 0 -75 0 0 50 0 50 205 0 205 0 0 -50z"/>
<path d="M5933 1196 c-22 -19 -28 -32 -28 -66 0 -80 82 -116 144 -64 25 20 31
34 31 64 0 30 -6 44 -31 64 -38 33 -79 33 -116 2z"/>
<path d="M6627 1209 c-9 -5 -24 -24 -33 -40 -39 -77 43 -158 119 -117 34 17
46 39 47 80 0 63 -78 109 -133 77z"/>
<path d="M7495 1208 c-33 -17 -45 -40 -45 -80 0 -100 131 -121 170 -28 31 74
-53 148 -125 108z"/>
<path d="M8899 1191 c-20 -20 -29 -39 -29 -61 0 -43 47 -90 90 -90 43 0 90 47
90 90 0 22 -9 41 -29 61 -40 39 -82 39 -122 0z"/>
</g>
</svg>
